<?xml version="1.0" encoding="UTF-8" standalone="no"?>
<!-- Created with Inkscape (http://www.inkscape.org/) -->

<svg
   version="1.1"
   id="svg1"
   width="307.20001"
   height="307.20001"
   viewBox="0 0 307.20001 307.20001"
   sodipodi:docname="coconut tree nobg.svg"
   inkscape:version="1.4 (86a8ad7, 2024-10-11)"
   xmlns:inkscape="http://www.inkscape.org/namespaces/inkscape"
   xmlns:sodipodi="http://sodipodi.sourceforge.net/DTD/sodipodi-0.dtd"
   xmlns="http://www.w3.org/2000/svg"
   xmlns:svg="http://www.w3.org/2000/svg">
  <defs
     id="defs1" />
  <sodipodi:namedview
     id="namedview1"
     pagecolor="#505050"
     bordercolor="#eeeeee"
     borderopacity="1"
     inkscape:showpageshadow="0"
     inkscape:pageopacity="0"
     inkscape:pagecheckerboard="0"
     inkscape:deskcolor="#505050"
     showgrid="false"
     inkscape:zoom="3.720703"
     inkscape:cx="170.80106"
     inkscape:cy="110.59738"
     inkscape:window-width="2560"
     inkscape:window-height="1361"
     inkscape:window-x="-9"
     inkscape:window-y="-9"
     inkscape:window-maximized="1"
     inkscape:current-layer="g1" />
  <g
     inkscape:groupmode="layer"
     inkscape:label="Image"
     id="g1">
    <path
       id="path8-86"
       d="m 224.59001,156.37527 a 5.0590047,5.9353581 0 0 1 -5.05899,5.93536 5.0590047,5.9353581 0 0 1 -5.05901,-5.93536 5.0590047,5.9353581 0 0 1 5.05901,-5.93536 5.0590047,5.9353581 0 0 1 5.05899,5.93536 z m 9.98148,10.93216 a 5.0590047,5.9353581 0 0 1 -5.05901,5.93535 5.0590047,5.9353581 0 0 1 -5.059,-5.93535 5.0590047,5.9353581 0 0 1 5.059,-5.93536 5.0590047,5.9353581 0 0 1 5.05901,5.93536 z m -2.66425,-23.09915 a 5.0590047,5.9353581 0 0 1 -5.05901,5.93537 5.0590047,5.9353581 0 0 1 -5.05902,-5.93537 5.0590047,5.9353581 0 0 1 5.05902,-5.93534 5.0590047,5.9353581 0 0 1 5.05901,5.93534 z M 115.9858,100.54149 a 7.5885064,9.6724353 0 0 1 -7.58851,9.67243 7.5885064,9.6724353 0 0 1 -7.58849,-9.67243 7.5885064,9.6724353 0 0 1 7.58849,-9.672433 7.5885064,9.6724353 0 0 1 7.58851,9.672433 z m 21.78103,-42.42852 a 7.5885064,9.6724353 0 0 1 -7.58851,9.672433 7.5885064,9.6724353 0 0 1 -7.5885,-9.672433 7.5885064,9.6724353 0 0 1 7.5885,-9.672435 7.5885064,9.6724353 0 0 1 7.58851,9.672435 z m 12.85861,18.105758 a 5.5189142,0.87931225 0 0 1 -5.51891,0.879307 5.5189142,0.87931225 0 0 1 -5.51891,-0.879307 5.5189142,0.87931225 0 0 1 5.51891,-0.879324 5.5189142,0.87931225 0 0 1 5.51891,0.879324 z m -8.76519,11.16485 a 7.5885064,9.6724353 0 0 1 -7.58852,9.672433 7.5885064,9.6724353 0 0 1 -7.58848,-9.672433 7.5885064,9.6724353 0 0 1 7.58848,-9.672434 7.5885064,9.6724353 0 0 1 7.58852,9.672434 z M 107.61818,307.20957 c 0,-0.49365 3.31211,-4.42934 5.49762,-6.5327 7.78218,-7.48962 20.221,-13.56576 33.79122,-16.50644 1.35526,-0.29369 2.73018,-0.59219 3.05538,-0.66336 0.49603,-0.10861 0.68521,-0.51944 1.17464,-2.55137 2.07418,-8.61118 3.6584,-20.27159 4.40068,-32.39038 0.38132,-6.22571 0.37909,-22.92426 -0.004,-29.83754 -2.48229,-44.79933 -14.21438,-89.81504 -28.95654,-111.10558 -2.72696,-3.93826 -7.18601,-8.419424 -9.60238,-9.650043 l -1.45805,-0.742552 -0.65912,0.591942 c -0.36251,0.325563 -0.7265,0.794898 -0.80887,1.042972 -0.0823,0.248057 0.34675,1.545321 0.95357,2.882791 0.60679,1.33747 1.1033,2.47035 1.1033,2.51751 0,0.0471 -0.52362,0.0882 -1.1636,0.091 l -1.16362,0.005 1.5502,1.43426 1.55021,1.43425 -0.86573,0.003 c -1.56363,0.007 -2.13358,0.26149 -1.9332,0.86503 0.099,0.2981 1.34545,2.58932 2.76999,5.09164 1.42452,2.50231 2.53474,4.6025 2.46715,4.66712 -0.0677,0.0646 -1.46462,0.63463 -3.10453,1.26672 -2.68871,1.03634 -2.91441,1.17338 -2.29719,1.39475 0.37646,0.13496 1.79332,0.64532 3.14858,1.13401 l 2.46412,0.88853 -1.70156,0.13087 -1.70156,0.13087 2.57741,1.96299 c 1.41758,1.07965 2.58371,2.06068 2.59137,2.18008 0.006,0.11941 -0.32485,0.15574 -0.73896,0.0807 -1.15031,-0.20843 -6.24726,-0.50034 -6.09182,-0.34892 0.0754,0.0733 1.82781,1.42578 3.89447,3.00538 3.70104,2.82878 3.74481,2.87444 2.90902,3.03424 -0.46671,0.0893 -1.53895,0.16228 -2.38277,0.16228 h -1.53421 l 1.91067,1.32733 c 1.05086,0.73001 2.01057,1.42032 2.13268,1.53397 0.12219,0.1137 -0.59036,0.81696 -1.58326,1.56288 -0.99288,0.74593 -1.74005,1.45705 -1.66038,1.58029 0.0798,0.12314 1.87062,1.24905 3.9799,2.50184 2.10925,1.25277 3.89308,2.36757 3.96406,2.47735 0.0711,0.10972 -2.20878,0.3527 -5.0661,0.53984 -2.85733,0.18714 -5.19514,0.41912 -5.19514,0.5155 0,0.0963 1.1077,0.75433 2.46157,1.46207 1.35386,0.70776 2.4627,1.35726 2.4641,1.44337 0.001,0.086 -0.48691,0.36755 -1.08516,0.62543 l -1.0877,0.4689 1.37275,1.43584 c 0.75501,0.78974 1.33688,1.46984 1.29304,1.51136 -0.0438,0.0415 -1.28094,-0.12857 -2.74914,-0.37813 -1.4682,-0.24949 -2.66946,-0.39311 -2.66946,-0.31914 0,0.0739 0.94473,1.30714 2.09941,2.74043 l 2.09942,2.60593 -2.34869,-0.18218 -2.3487,-0.18217 -0.17247,2.04017 c -0.0948,1.1221 -0.2599,2.56037 -0.36674,3.19613 l -0.19427,1.15596 -0.97936,-1.4177 c -2.70913,-3.92171 -4.39735,-7.82559 -5.58534,-12.9156 -2.82029,-12.08377 -2.15235,-27.68562 2.06319,-48.19171 0.59353,-2.887079 1.07388,-5.419343 1.06747,-5.627257 -0.006,-0.207914 -0.6335,-0.836629 -1.39349,-1.397146 l -1.3818,-1.019123 0.0929,3.010992 0.0929,3.010974 -0.60744,-0.421472 c -0.33407,-0.231798 -0.61128,-0.496247 -0.61602,-0.587657 -0.005,-0.09144 -0.33656,-0.371627 -0.7374,-0.622694 l -0.72879,-0.456511 0.17901,4.146974 0.17898,4.14696 -1.8761,-1.77975 c -1.50005,-1.42301 -1.91121,-1.69231 -2.0512,-1.34357 -0.0963,0.23991 -0.17699,2.10492 -0.1793,4.14447 -0.001,2.03955 -0.10667,3.86261 -0.23169,4.05122 -0.1745,0.26305 -0.65394,0.0874 -2.058482,-0.75455 -1.007037,-0.6036 -1.886379,-1.04451 -1.954089,-0.97978 -0.06779,0.0648 0.738921,2.81404 1.792538,6.10958 1.053603,3.29555 1.883213,6.07238 1.843553,6.17076 -0.0398,0.0983 -1.833277,-0.80968 -3.985828,-2.01794 -2.152538,-1.20824 -4.015097,-2.19681 -4.139032,-2.19681 -0.123959,0 0.185094,1.67836 0.686738,3.7297 0.501606,2.05133 0.916529,3.88517 0.921995,4.07521 0.005,0.19227 -0.870493,-0.24032 -1.975031,-0.97528 -1.091739,-0.72646 -2.022722,-1.21533 -2.068897,-1.08636 -0.0462,0.12891 0.232367,2.91238 0.6189,6.18539 0.386559,3.27299 0.656354,5.99534 0.599537,6.04965 -0.0568,0.0543 -1.892526,-1.08298 -4.079337,-2.52732 -2.18681,-1.44436 -4.051313,-2.62608 -4.14331,-2.62608 -0.09202,0 -0.180663,0.8539 -0.19701,1.89757 -0.01704,1.04365 -0.108811,2.5848 -0.205341,3.42478 l -0.175638,1.52724 -1.188003,-1.33093 c -0.6534,-0.73203 -1.290667,-1.33094 -1.416129,-1.33094 -0.125474,0 0.430728,2.44292 1.235997,5.4287 0.805256,2.9858 1.41272,5.47784 1.34992,5.53789 -0.06274,0.06 -2.225197,-0.85657 -4.805307,-2.03689 -2.58011,-1.18033 -4.728091,-2.11069 -4.773282,-2.06748 -0.04519,0.0433 0.954273,2.95484 2.221082,6.47028 1.266809,3.51545 2.263344,6.42989 2.214543,6.47653 -0.04873,0.0466 -0.817172,-0.65185 -1.707509,-1.55225 -0.890336,-0.90039 -2.901533,-2.93259 -4.469328,-4.51597 l -2.850536,-2.87889 0.164265,5.62725 0.164278,5.62725 -1.899381,-3.66425 -1.899381,-3.66426 0.136545,1.57039 c 0.544979,6.26416 0.987699,12.47724 0.905838,12.71205 -0.05377,0.15426 -1.619488,-1.26395 -3.479358,-3.15153 -1.859845,-1.88759 -3.423614,-3.39178 -3.475016,-3.34263 -0.05138,0.0491 0.640183,1.90065 1.536856,4.11446 0.896661,2.21382 1.587627,4.06591 1.535468,4.11578 -0.05226,0.0499 -1.30281,-0.63512 -2.779202,-1.5222 -1.476404,-0.88707 -2.867867,-1.62603 -3.092155,-1.64213 -0.254369,-0.0184 -1.581391,1.89096 -3.527061,5.0745 -3.984549,6.51959 -3.682704,6.11535 -3.517947,4.71119 1.320748,-11.25699 3.931482,-22.61815 7.120595,-30.98674 5.247231,-13.76937 13.611851,-25.96342 24.633619,-35.91116 l 3.162025,-2.8539 -3.104438,-3.891035 c -1.707458,-2.140074 -3.209462,-3.88117 -3.337802,-3.869097 -0.128339,0.01143 -0.627547,2.315959 -1.109335,5.119788 -0.481775,2.803814 -0.926262,5.242084 -0.987724,5.418374 -0.06147,0.17628 -0.861985,-1.43668 -1.778918,-3.584348 -0.916946,-2.147681 -2.558436,-5.999815 -3.647751,-8.560314 -1.08934,-2.5605 -2.029589,-4.608624 -2.08946,-4.551386 -0.05983,0.05726 -0.292037,4.448885 -0.515909,9.75923 -0.223871,5.310348 -0.439412,9.831848 -0.478985,10.047778 -0.03951,0.21593 -1.479421,-3.55303 -3.199679,-8.375452 C 60.0121,84.835156 60.51921,85.091229 60.596918,95.765216 c 0.03635,4.995354 -0.01136,8.999864 -0.105025,8.898914 -0.09417,-0.10093 -1.246599,-3.28264 -2.561049,-7.070417 -1.314461,-3.78778 -2.438944,-6.84001 -2.498854,-6.782723 -0.05996,0.05726 0.507325,5.382045 1.260548,11.83283 0.753224,6.45078 1.362872,11.79971 1.35478,11.88651 -0.0076,0.0869 -1.515359,-2.66888 -3.349516,-6.12375 l -3.335012,-6.28088 -0.22752,3.00993 c -0.125095,1.65546 -0.314493,3.22427 -0.420793,3.48624 -0.129639,0.31953 -0.628873,-0.97276 -1.516697,-3.92599 -1.411874,-4.696499 -1.788726,-5.6407 -1.809226,-4.53318 -0.0063,0.35989 -0.255114,5.01219 -0.552112,10.33846 -0.29701,5.32627 -0.549523,10.21413 -0.561149,10.86191 -0.03131,1.74148 -0.252564,1.01103 -2.054181,-6.78004 l -1.598085,-6.9109 -0.448285,1.02192 c -0.246556,0.56205 -1.977849,4.8792 -3.847316,9.59366 -1.869467,4.71447 -3.477992,8.57175 -3.574497,8.57175 -0.09652,0 -0.264777,-1.64891 -0.373932,-3.66426 -0.109152,-2.01534 -0.288559,-3.66425 -0.398677,-3.66425 -0.110112,0 -0.415964,0.98279 -0.679656,2.18401 -0.263694,1.2012 -0.564774,2.31599 -0.669067,2.47731 -0.104293,0.1613 -0.86043,-2.949 -1.680304,-6.91183 -0.930844,-4.49919 -1.565821,-7.02687 -1.690757,-6.73048 -0.110048,0.26106 -0.574814,2.77137 -1.032827,5.57846 -1.177084,7.21414 -0.923101,6.6638 -2.355438,5.10379 -0.660854,-0.71977 -1.204085,-1.23335 -1.207183,-1.14129 -0.01199,0.35383 -0.855851,4.56298 -0.987034,4.92278 -0.07599,0.20845 -1.323282,-2.0588 -2.771745,-5.03835 -1.448464,-2.97953 -2.705826,-5.41586 -2.794137,-5.41404 -0.08831,0.002 -1.07497,2.82792 -2.192575,6.28025 -1.117604,3.45232 -2.077399,6.23355 -2.132879,6.18051 -0.05548,-0.053 0.0395,-1.94486 0.21104,-4.20407 0.171551,-2.25921 0.262297,-4.15509 0.201655,-4.21307 -0.06064,-0.0579 -0.887302,1.62836 -1.837023,3.7474 -0.94972,2.11903 -1.81637,3.94558 -1.92589,4.05899 -0.109519,0.11333 0.214298,-2.23591 0.719598,-5.22073 0.5053,-2.98481 0.883382,-5.52832 0.840179,-5.65222 -0.04321,-0.12383 -2.6634991,2.41537 -5.8228853,5.64282 -3.1593862,3.22744 -5.79161689,5.82924 -5.84940443,5.78179 C 0.10020651,126.77919 4.6212082,119.51349 7.6943455,115.11806 15.144933,104.46238 24.296391,95.223538 33.831796,88.731551 53.332179,75.455122 76.70583,71.128042 102.14779,76.08446 c 3.12377,0.608544 3.00299,0.636256 3.87871,-0.889876 0.26309,-0.458491 0.20431,-0.484026 -0.77298,-0.335852 -0.58175,0.08817 -1.79697,0.241841 -2.70047,0.341398 l -1.64274,0.181004 1.49997,-1.227821 c 1.99014,-1.629058 2.19468,-1.995909 1.11284,-1.995909 -0.80246,0 -5.706806,0.634309 -7.130345,0.922199 -0.609395,0.123177 -0.558006,0.0229 0.468534,-0.915345 0.63415,-0.579574 1.046056,-1.053785 0.91533,-1.053785 -0.130725,0 -1.067704,0.356022 -2.082214,0.791153 -1.014511,0.435147 -1.887995,0.749635 -1.941075,0.698892 -0.05302,-0.05071 0.45995,-0.777347 1.140098,-1.614679 0.680148,-0.837316 1.192219,-1.564852 1.137939,-1.616739 -0.05428,-0.05185 -1.43577,0.379823 -3.069989,0.95938 -1.634231,0.579543 -3.056747,1.022035 -3.161141,0.983298 -0.104393,-0.03877 0.169921,-1.294939 0.609774,-2.79156 0.439779,-1.496637 0.76456,-2.821326 0.721729,-2.943774 -0.04279,-0.122444 -1.248341,0.463221 -2.678898,1.301483 -1.430544,0.838265 -3.217024,1.858499 -3.969944,2.267179 l -1.368956,0.743059 0.970594,-1.024668 c 0.533821,-0.563577 1.887944,-1.966922 3.009196,-3.11854 1.673603,-1.718931 1.941037,-2.1059 1.493546,-2.161092 -0.299812,-0.03697 -2.269996,0.215987 -4.378177,0.562143 -2.10818,0.346153 -3.868479,0.597722 -3.911789,0.559041 -0.0433,-0.03868 1.034808,-0.576214 2.395824,-1.194514 1.361004,-0.618301 2.418054,-1.178195 2.348993,-1.244209 -0.06918,-0.06602 -2.723219,0.08601 -5.898131,0.337838 -3.174926,0.251825 -5.819047,0.41344 -5.875839,0.359145 -0.0568,-0.05429 0.815532,-1.187887 1.938513,-2.519093 1.122981,-1.331207 1.873137,-2.420376 1.666976,-2.420376 -0.206149,0 -2.517234,0.413424 -5.135743,0.91872 -2.618485,0.505297 -4.85758,0.887911 -4.975745,0.850256 -0.118026,-0.03766 0.647833,-1.118776 1.70222,-2.40249 1.054374,-1.283715 1.876545,-2.372752 1.827025,-2.420084 -0.04948,-0.04733 -2.790525,1.042357 -6.091177,2.421533 -3.30064,1.379175 -6.309166,2.614379 -6.685627,2.744896 -0.389424,0.135006 1.026856,-1.344437 3.285479,-3.432032 l 3.969944,-3.669337 -2.669456,0.912571 c -1.468187,0.501912 -2.669444,0.842018 -2.669444,0.755791 0,-0.08622 0.569027,-0.793497 1.264499,-1.571706 0.695473,-0.778211 1.198253,-1.478247 1.117301,-1.555638 -0.08091,-0.07739 -2.094181,0.275119 -4.473835,0.783355 -2.379642,0.508235 -4.36313,0.889179 -4.407728,0.846542 -0.04456,-0.04263 1.29044,-0.944451 2.966757,-2.004029 1.67633,-1.059577 2.925227,-1.965581 2.775352,-2.013341 -0.149887,-0.04777 -1.919262,0.20328 -3.931961,0.557864 -2.012699,0.354586 -3.699026,0.606882 -3.747373,0.560657 -0.06513,-0.06231 3.142888,-2.607749 4.03354,-3.200396 0.470995,-0.313406 -0.608424,-0.181891 -3.673351,0.447557 -1.957599,0.402034 -3.598483,0.695863 -3.646425,0.652953 -0.04797,-0.04291 0.783696,-0.750657 1.84808,-1.572766 1.064384,-0.822111 1.935243,-1.590507 1.935243,-1.707548 0,-0.117038 -2.519695,-1.012504 -5.599316,-1.98992 -3.079629,-0.977416 -5.558685,-1.815968 -5.509017,-1.863448 0.04967,-0.04747 2.292149,0.221593 4.983292,0.597945 22.788312,3.186888 39.755334,9.367337 53.011552,19.31013 1.468199,1.101218 2.669446,1.911216 2.669446,1.799997 0,-0.111223 -0.24764,-1.286917 -0.55032,-2.61266 -1.764567,-7.728935 -1.816991,-19.754571 -0.13142,-30.150781 0.6415,-3.956623 1.55744,-8.672487 1.66453,-8.570114 0.054,0.05164 0.22582,1.26491 0.38181,2.696168 0.15606,1.431257 0.35526,3.014064 0.44282,3.517349 l 0.15915,0.915063 1.36811,-1.438528 c 0.75246,-0.791192 1.3123,-1.261859 1.24411,-1.04593 -0.0683,0.21593 -0.47292,1.419666 -0.89936,2.674972 -0.42645,1.255305 -0.70987,2.34498 -0.62982,2.421497 0.08,0.07652 0.72001,-0.02616 1.42217,-0.228169 l 1.27665,-0.367293 -0.59702,0.824858 c -0.32836,0.453671 -0.95448,1.266529 -1.3914,1.806354 -0.91817,1.134434 -0.83742,1.162688 1.30711,0.457355 0.87648,-0.288279 1.62354,-0.494394 1.66007,-0.458032 0.0366,0.03637 -0.71778,1.003432 -1.67626,2.149048 -0.95851,1.145616 -1.69728,2.126398 -1.6417,2.17952 0.0557,0.05312 1.13808,-0.08919 2.40561,-0.316242 1.2675,-0.227054 2.47721,-0.412824 2.68822,-0.412824 0.211,0 -0.70255,1.043189 -2.03012,2.318193 l -2.41375,2.318196 2.21055,0.888033 c 1.2158,0.488418 2.21215,1.002397 2.21412,1.142176 0.001,0.139781 -0.69782,0.93171 -1.55508,1.759851 -0.85723,0.82814 -1.50406,1.55372 -1.43739,1.612399 0.25178,0.221568 3.60167,1.769738 3.65858,1.690833 0.0327,-0.0454 0.65571,-1.495927 1.38435,-3.223365 2.0535,-4.868293 4.36568,-9.622827 6.4915,-13.348372 10.24597,-17.956396 23.03444,-27.9130622 39.83208,-31.01191624 1.57083,-0.28978726 3.22348,-0.52688608 3.67257,-0.52688608 h 0.81653 l -2.06949,3.76605822 -2.06952,3.7660584 2.63468,1.9181332 c 1.44909,1.0549725 2.53029,1.9484825 2.40268,1.9855765 -0.12764,0.0371 -2.30914,0.299151 -4.84787,0.58235 -2.53873,0.283198 -4.67182,0.568375 -4.74017,0.633728 -0.0684,0.06535 1.08473,0.499005 2.56245,0.963674 1.4777,0.464669 2.78844,0.933309 2.91274,1.041421 0.12421,0.108117 -0.73814,0.282279 -1.91652,0.387034 -1.1784,0.104762 -2.24072,0.247571 -2.36071,0.317361 -0.11992,0.0698 0.039,0.543606 0.35336,1.052921 0.31434,0.509312 0.5336,0.962293 0.48723,1.006624 -0.091,0.08705 -6.39312,0.900357 -6.97667,0.900357 -0.83206,0 -0.1422,0.499194 3.07446,2.224729 1.87845,1.007671 3.41574,1.891019 3.41616,1.962995 4.5e-4,0.07198 -2.18616,0.04017 -4.8591,-0.07069 -7.80555,-0.323709 -7.67626,-0.748482 -1.25617,4.12754 3.0326,2.303249 5.48006,4.221894 5.43879,4.263657 -0.0413,0.04176 -2.81677,-0.581305 -6.16774,-1.384596 -3.35098,-0.80329 -6.14285,-1.412561 -6.20417,-1.353938 -0.0612,0.05862 1.33823,0.946698 3.11011,1.973494 1.7719,1.026799 3.09109,1.866906 2.93154,1.866906 -0.15949,0 -1.63591,-0.358036 -3.28083,-0.795637 -1.64489,-0.437599 -3.23712,-0.855383 -3.53828,-0.92841 -0.30118,-0.07303 1.23889,1.529226 3.42237,3.56056 l 3.96995,3.693335 -1.50584,-0.1406 c -0.82822,-0.07733 -4.33957,-0.21377 -7.80302,-0.303196 l -6.29716,-0.162585 2.05342,1.827542 2.05342,1.827545 -1.3005,0.16018 c -0.71527,0.08811 -1.85492,0.226293 -2.53255,0.307089 -0.67763,0.08079 -1.23205,0.229658 -1.23205,0.330804 0,0.101145 1.66326,1.770653 3.69616,3.710017 2.03288,1.939366 3.69616,3.594752 3.69616,3.678636 0,0.08389 -2.2485,-0.121126 -4.99666,-0.455599 -2.74816,-0.334466 -5.1635,-0.578131 -5.36743,-0.54148 -0.2039,0.03664 0.75094,0.591431 2.12187,1.232843 1.37096,0.641414 2.49264,1.23876 2.49264,1.327435 0,0.08868 -1.72488,0.371596 -3.83306,0.628709 -2.10818,0.257113 -3.83306,0.49603 -3.83306,0.530923 0,0.03489 2.47646,1.637727 5.50328,3.561851 3.02679,1.924124 5.37662,3.538768 5.22181,3.588098 -0.15487,0.04934 -2.64401,-0.219206 -5.53156,-0.596747 -2.88752,-0.377543 -5.29573,-0.642794 -5.35152,-0.589447 -0.0558,0.05334 1.00416,0.615058 2.35548,1.248246 1.35131,0.633189 2.45693,1.233239 2.45693,1.333445 0,0.100214 -0.73922,0.264212 -1.64274,0.364457 -0.9035,0.100238 -1.64274,0.270455 -1.64274,0.378245 0,0.107781 1.10814,0.591583 2.46253,1.075096 1.35439,0.483515 2.37083,0.953191 2.25876,1.043725 -0.11209,0.09052 -0.75817,0.355299 -1.43581,0.588369 -0.67762,0.23307 -1.9616,0.680777 -2.85325,0.994907 l -1.62119,0.571144 0.84193,0.684183 c 0.46305,0.376295 1.39763,1.131754 2.07682,1.678808 l 1.23491,0.994618 3.57551,-1.712779 c 12.84942,-6.155309 24.85147,-8.845099 37.65737,-8.439443 11.14882,0.353164 20.62738,2.749743 31.77912,8.035115 4.81251,2.280886 11.5054,5.967262 11.25998,6.201889 -0.0481,0.0458 -2.34523,-0.80069 -5.10498,-1.88127 -2.75975,-1.080564 -5.06458,-1.919892 -5.12182,-1.865158 -0.0572,0.0548 1.26885,1.94744 2.9469,4.20603 1.67806,2.258591 3.00907,4.138879 2.95783,4.178417 -0.0511,0.03959 -2.37247,-1.272218 -5.15829,-2.915033 -5.82507,-3.435078 -6.13778,-3.608886 -5.95208,-3.308236 0.0756,0.122356 0.64353,1.01742 1.26214,1.989103 0.61862,0.971683 1.03368,1.763327 0.92237,1.75922 -0.11133,-0.0048 -1.18684,-0.584351 -2.39006,-1.289393 -1.20322,-0.705043 -2.23005,-1.241382 -2.28185,-1.191866 -0.0519,0.04957 0.84062,1.70905 1.98313,3.687848 1.14252,1.978798 2.03103,3.642044 1.97445,3.696125 -0.0567,0.05415 -1.85211,-1.330993 -3.99009,-3.077913 -2.13798,-1.746935 -3.9382,-3.127526 -4.00048,-3.067982 -0.0624,0.05954 0.32789,1.101421 0.86706,2.315288 1.69938,3.825879 1.70987,3.55142 -0.0981,2.564065 -0.86645,-0.473212 -3.60828,-2.000931 -6.09292,-3.394919 -2.48464,-1.393973 -4.56202,-2.49451 -4.6164,-2.445615 -0.0544,0.04891 0.28932,1.347089 0.76379,2.884868 0.47445,1.537794 0.82526,2.83172 0.77958,2.875396 -0.0457,0.04368 -1.47363,-1.103907 -3.17321,-2.550177 -1.69957,-1.44627 -3.12975,-2.586427 -3.17817,-2.533688 -0.0485,0.05283 0.0247,0.976886 0.16273,2.053637 0.43187,3.371004 0.39289,3.40732 -1.79237,1.66984 -1.24771,-0.992033 -1.83019,-1.32625 -1.72816,-0.991592 0.92148,3.022327 2.11693,7.516001 2.02328,7.605514 -0.0654,0.06249 -2.19849,-2.542064 -4.74028,-5.787861 -2.54182,-3.245798 -4.65903,-5.793767 -4.70493,-5.662131 -0.0458,0.131685 0.345,1.69274 0.86865,3.469154 0.52364,1.776413 0.90334,3.276436 0.84377,3.333395 -0.0596,0.05692 -1.80638,-1.433067 -3.88177,-3.311148 -2.07541,-1.87808 -3.81061,-3.379723 -3.85599,-3.336978 -0.0453,0.04269 0.47822,1.527488 1.16361,3.299435 0.68536,1.771964 1.24613,3.313718 1.24613,3.426115 0,0.112379 -2.23734,-1.324646 -4.97188,-3.193466 -2.73453,-1.868806 -5.01623,-3.355431 -5.07046,-3.303608 -0.0543,0.05185 0.53222,1.789942 1.30319,3.862456 2.19749,5.90726 2.69065,7.301593 2.5825,7.301593 -0.0554,0 -1.48417,-1.560582 -3.17512,-3.46796 -1.69096,-1.907378 -3.19411,-3.58574 -3.34036,-3.729692 -0.25652,-0.252474 -0.18935,0.818831 0.26126,4.167308 l 0.17335,1.288234 -2.71096,-2.09015 c -1.49103,-1.149579 -2.88741,-2.191161 -3.10302,-2.314617 -0.21563,-0.123512 0.0728,0.570185 0.64099,1.541443 0.56817,0.971241 0.97785,1.81865 0.91042,1.883134 -0.0674,0.06445 -1.15248,-0.304149 -2.41119,-0.819175 -2.46788,-1.009781 -2.94353,-1.012382 -4.22304,-0.02306 l -0.82044,0.634407 0.6058,1.192029 0.60581,1.192013 -1.96944,0.07672 -1.96947,0.07672 2.73168,1.024062 c 7.13824,2.676022 16.56543,7.915045 22.71833,12.625417 9.99394,7.650893 18.57824,17.390983 25.6629,29.118183 2.33852,3.87093 2.38246,3.89606 -3.24955,-1.8581 -1.22526,-1.25184 -2.3033,-2.20381 -2.39566,-2.11553 -0.0924,0.0883 -0.16788,1.20093 -0.16788,2.47251 0,1.2716 -0.0924,2.31042 -0.20534,2.30849 -0.11298,-0.001 -1.06749,-1.56247 -2.12122,-3.46795 l -1.91588,-3.46447 -0.17577,2.56661 c -0.0967,1.41166 -0.23024,2.6187 -0.29679,2.68232 -0.0665,0.0636 -0.65909,-1.82748 -1.31674,-4.20246 -0.65766,-2.37498 -1.26364,-4.31646 -1.34662,-4.31442 -0.0831,0.002 -0.82848,1.59053 -1.6567,3.52996 -1.74514,4.08654 -1.66454,4.13654 -2.32066,-1.43981 -0.66923,-5.68778 -0.57429,-5.6215 -2.06186,-1.43953 -0.72775,2.04586 -1.37436,3.49086 -1.46402,3.27166 -0.0884,-0.21593 -0.76506,-2.68931 -1.50386,-5.49639 l -1.34328,-5.10379 -1.58542,3.14079 c -1.78993,3.54596 -1.69454,3.5659 -2.3251,-0.48577 -0.19364,-1.24433 -0.44051,-2.26242 -0.54858,-2.26242 -0.10818,0 -0.35124,0.3571 -0.54036,0.79359 -0.18912,0.43647 -0.40581,0.73436 -0.48152,0.66197 -0.0759,-0.0725 -0.34582,-1.10672 -0.60022,-2.29855 l -0.46254,-2.16695 -2.08643,3.926 c -1.14753,2.1593 -2.09364,3.80822 -2.10242,3.66426 -0.009,-0.14395 0.49111,-2.35898 1.11095,-4.92226 0.61981,-2.56328 1.06879,-4.7161 0.99772,-4.78405 -0.0711,-0.0679 -0.99281,0.17427 -2.04831,0.53822 -1.05547,0.36397 -1.99655,0.66176 -2.09128,0.66176 -0.0948,0 -0.17931,-0.79501 -0.18798,-1.7667 -0.009,-0.97168 -0.10427,-2.23781 -0.21244,-2.81362 -0.19434,-1.03476 -0.21489,-1.00131 -1.76917,2.87906 l -1.57253,3.92601 0.0858,-4.90751 c 0.0472,-2.69912 -0.0136,-4.907492 -0.13587,-4.907492 -0.12206,0 -1.71134,0.713844 -3.53199,1.586312 -1.82064,0.87247 -3.36637,1.53268 -3.43494,1.46711 -0.0687,-0.0656 0.42697,-1.39775 1.10121,-2.960409 0.67424,-1.562658 1.1906,-2.874986 1.14748,-2.916275 -0.0432,-0.04122 -1.08005,0.274362 -2.30428,0.701477 -1.22422,0.427114 -2.22584,0.722954 -2.22584,0.65744 0,-0.0656 0.46099,-0.970081 1.02445,-2.01014 0.56346,-1.040061 1.06932,-1.987354 1.12416,-2.105102 0.0548,-0.117783 -0.64905,0.147226 -1.56422,0.588899 -0.91517,0.441642 -1.76467,0.802964 -1.88778,0.802964 -0.12308,0 -0.88148,-1.539758 -1.68523,-3.421715 -0.80377,-1.881939 -1.54784,-3.324741 -1.65351,-3.206226 -0.10553,0.118592 -0.59951,1.128281 -1.09746,2.243917 -0.49792,1.115636 -0.94383,2.028429 -0.9909,2.028429 -0.0471,0 -0.66017,-1.007655 -1.36243,-2.239238 -0.70225,-1.231584 -1.33552,-2.183163 -1.40722,-2.114622 -0.12219,0.116802 0.31073,2.540559 0.66061,3.698399 0.1126,0.372414 -0.28579,0.159984 -1.38782,-0.74 -0.85009,-0.694279 -1.54561,-1.187727 -1.54561,-1.096546 0,0.09112 0.3722,0.882988 0.82717,1.759564 0.45495,0.876576 0.79375,1.623872 0.75292,1.660645 -0.0409,0.03681 -1.22321,-0.569252 -2.6275,-1.34673 -1.40429,-0.777476 -2.62407,-1.413601 -2.71064,-1.413601 -0.0866,0 1.49633,1.619471 3.51754,3.598825 12.62163,12.360285 23.4683,29.757105 31.94382,51.234215 11.21122,28.40937 18.01162,64.04684 19.1167,100.18107 0.10452,3.42044 0.2267,6.1841 0.27127,6.14147 0.0447,-0.0428 0.47009,-1.89893 0.9455,-4.12512 4.68563,-21.9404 12.86027,-43.63695 22.43565,-59.54697 6.71731,-11.1612 15.09794,-20.94907 23.06836,-26.94195 1.1454,-0.86122 2.04804,-1.59889 2.00582,-1.63922 -0.0423,-0.0404 -0.78862,0.22759 -1.6587,0.59544 -0.87007,0.36785 -1.64542,0.60814 -1.72299,0.53398 -0.0775,-0.074 0.19042,-0.55026 0.59555,-1.05802 0.84769,-1.06246 0.73146,-1.14107 -0.55949,-0.37837 -1.03503,0.61152 -1.09075,0.50137 -0.52358,-1.03538 0.2192,-0.59391 0.35215,-1.07983 0.29543,-1.07983 -0.0567,0 -0.59913,0.66843 -1.20541,1.48542 l -1.1023,1.48543 -0.47008,-1.61629 c -0.25853,-0.88897 -0.54226,-1.61463 -0.63051,-1.61262 -0.0884,0.001 -0.68955,0.94426 -1.33624,2.09385 -0.64666,1.14962 -1.26268,2.08942 -1.36894,2.08847 -0.10629,-9.5e-4 -0.56279,-0.23572 -1.01455,-0.52173 -0.45176,-0.28601 -0.90714,-0.5208 -1.01196,-0.52174 -0.1049,-9.6e-4 0.0419,0.64457 0.32628,1.43449 l 0.51691,1.43622 -1.38024,-0.66863 c -0.75912,-0.36773 -1.42671,-0.62416 -1.48353,-0.56986 -0.0568,0.0543 0.15042,0.95554 0.46036,2.00275 0.31,1.04721 0.50196,1.96299 0.42656,2.03505 -0.0754,0.0722 -1.08115,-0.47796 -2.23502,-1.22228 -1.15387,-0.74434 -2.17088,-1.28365 -2.26001,-1.19843 -0.0891,0.0852 -0.29656,1.53806 -0.46096,3.22855 -0.16444,1.69052 -0.37645,2.95589 -0.47121,2.81193 -0.0948,-0.14395 -0.39544,-1.29231 -0.66813,-2.5519 -0.2727,-1.25959 -0.57198,-2.29015 -0.66509,-2.29015 -0.093,0 -0.30972,0.72199 -0.48141,1.60446 -0.17166,0.88245 -0.37959,1.66898 -0.46207,1.74781 -0.0824,0.0788 -0.64949,-0.12498 -1.26003,-0.4531 -0.61056,-0.32802 -1.17826,-0.53126 -1.26156,-0.45164 -0.0833,0.0797 -0.004,1.51505 0.17692,3.18977 0.18063,1.67473 0.27295,3.09798 0.20519,3.16277 -0.0678,0.0647 -0.53446,-1.00059 -1.03708,-2.36751 -0.50263,-1.36689 -0.98072,-2.42283 -1.06243,-2.34654 -0.0818,0.0763 -0.35606,0.68983 -0.60968,1.36343 -0.40368,1.07219 -0.4844,1.15138 -0.64797,0.63582 -0.3025,-0.95344 -0.52511,-0.69748 -1.08123,1.24324 -0.28876,1.00767 -0.6008,1.83213 -0.69344,1.83213 -0.0925,0 -0.45822,-0.88335 -0.81241,-1.963 -0.35419,-1.07965 -0.7311,-1.963 -0.83757,-1.963 -0.10641,0 -0.78987,1.52847 -1.51866,3.39661 -0.7288,1.86814 -1.40488,3.25205 -1.50241,3.07536 -0.0976,-0.17668 -0.33243,-1.1457 -0.52199,-2.15337 -0.18959,-1.00768 -0.43088,-1.98763 -0.53622,-2.17766 -0.10541,-0.19005 -0.54342,1.14026 -0.9735,2.95626 -0.43007,1.816 -0.86313,3.14928 -0.96235,2.96287 -0.0992,-0.18642 -0.46392,-1.31318 -0.81043,-2.5039 -0.3465,-1.19071 -0.69834,-2.09962 -0.78184,-2.01979 -0.0834,0.0799 -0.68573,1.34849 -1.33827,2.81926 l -1.18644,2.67415 0.0894,-1.74868 c 0.0491,-0.96175 0.001,-1.69687 -0.1054,-1.63359 -0.10717,0.0634 -0.77798,0.90907 -1.49078,1.87952 -1.85756,2.52897 -1.84696,2.52599 -1.62729,0.45582 l 0.19438,-1.83213 -0.64287,0.54564 c -1.83778,1.55988 -4.64699,3.77295 -4.78925,3.77295 -0.0894,0 0.18035,-0.44168 0.59922,-0.9815 9.682,-12.47775 21.13589,-20.61826 34.52934,-24.5407 4.33387,-1.26923 4.62226,-1.39634 3.21871,-1.41858 -1.37504,-0.0217 -1.5777,-0.19257 -1.06265,-0.89552 0.5661,-0.77264 0.5034,-1.09172 -0.31528,-1.6045 -0.67333,-0.42175 -0.81434,-0.42235 -2.35178,-0.01 -0.89952,0.24128 -1.68446,0.39189 -1.74432,0.3347 -0.0598,-0.0573 0.28858,-0.62058 0.77427,-1.25191 0.48569,-0.63135 0.6997,-1.04373 0.4756,-0.91643 -0.2241,0.12727 -1.18328,0.69569 -2.13156,1.26305 -0.94825,0.56736 -1.78719,0.97126 -1.86428,0.89755 -0.0771,-0.0738 0.0468,-0.8189 0.27556,-1.65596 0.22864,-0.83706 0.38163,-1.55454 0.33995,-1.59437 -0.0415,-0.0399 -1.14738,0.86793 -2.45714,2.01728 -1.30976,1.14933 -2.44197,2.08973 -2.51603,2.08973 -0.0741,0 0.6745,-1.54365 1.66348,-3.43036 0.98896,-1.88667 1.7372,-3.48858 1.66272,-3.55978 -0.0745,-0.0712 -1.22155,0.45488 -2.54909,1.16905 -1.32753,0.71417 -2.94085,1.55463 -3.58516,1.86768 l -1.17148,0.56919 1.10607,-2.10302 c 0.60835,-1.15665 1.01233,-2.09899 0.89769,-2.09407 -0.11462,0.005 -1.37161,0.82648 -2.79332,1.82568 -1.42171,0.99921 -2.62458,1.77884 -2.67305,1.7325 -0.0485,-0.0464 0.1025,-0.52038 0.33552,-1.05344 0.23298,-0.53307 0.67102,-1.58174 0.97341,-2.33035 l 0.54978,-1.36113 -3.74174,3.74078 c -2.05797,2.05744 -3.78378,3.70059 -3.83515,3.65149 -0.0514,-0.0491 0.38634,-1.20108 0.97269,-2.55992 0.58635,-1.35883 1.02199,-2.51279 0.96805,-2.56434 -0.0539,-0.0516 -0.65254,0.27094 -1.33024,0.71668 -0.6777,0.44575 -1.28862,0.81043 -1.35761,0.81043 -0.0689,0 0.0617,-0.71078 0.29077,-1.57952 0.2289,-0.86873 0.34558,-1.64704 0.25925,-1.72956 -0.0865,-0.0825 -1.11141,0.50794 -2.27794,1.31216 -1.16653,0.80421 -2.15919,1.42566 -2.20588,1.38101 -0.0467,-0.0446 0.22951,-0.82097 0.61385,-1.72515 0.38431,-0.90417 0.6331,-1.70673 0.55287,-1.78345 -0.0803,-0.0768 -1.95223,0.58751 -4.15995,1.47602 -2.20773,0.88852 -4.07233,1.55977 -4.14358,1.49167 -0.0712,-0.0681 0.30687,-0.80593 0.84025,-1.6396 0.53339,-0.83366 0.92798,-1.55571 0.87688,-1.60456 -0.0511,-0.049 -1.35065,0.69145 -2.88791,1.64508 -1.53726,0.95364 -2.83973,1.69116 -2.89438,1.63893 -0.0545,-0.0522 0.63765,-1.05486 1.53842,-2.22806 0.90079,-1.17317 1.63781,-2.19457 1.63781,-2.26977 0,-0.0753 -0.69659,0.15786 -1.54794,0.51771 -0.85136,0.35993 -1.59818,0.60636 -1.65962,0.54764 -0.0615,-0.0588 0.28191,-0.53533 0.76301,-1.05911 0.48105,-0.52379 0.82747,-0.99404 0.76978,-1.045 -0.0577,-0.0511 -1.82018,0.65902 -3.91666,1.57773 -2.09648,0.91869 -3.85515,1.6289 -3.90818,1.5782 -0.053,-0.0507 0.9466,-1.19549 2.22135,-2.54405 1.27476,-1.34853 2.27441,-2.49331 2.22146,-2.54393 -0.0877,-0.0839 -2.22622,0.441 -5.74635,1.41072 -1.99797,0.55038 -1.21686,0.0585 2.05646,-1.29472 15.77891,-6.52363 30.56732,-6.45309 44.74595,0.21348 1.95985,0.92148 4.84048,2.46886 6.40138,3.4386 l 2.83803,1.76316 0.85815,-0.44584 c 0.47198,-0.24521 1.1563,-0.66305 1.52075,-0.92855 l 0.66257,-0.48272 -1.48395,-0.80188 c -0.81619,-0.44104 -1.66878,-0.91218 -1.89466,-1.04698 -0.30181,-0.1801 0.0429,-0.33165 1.3005,-0.57156 0.94116,-0.17954 1.71118,-0.41581 1.71118,-0.52501 0,-0.10922 -0.43121,-0.2759 -0.95826,-0.37041 -0.52704,-0.0946 -0.95826,-0.27483 -0.95826,-0.40069 0,-0.1258 0.64682,-0.42945 1.4374,-0.67464 0.79056,-0.24519 1.53793,-0.53333 1.6608,-0.64029 0.12282,-0.10699 -1.5404,-0.14461 -3.69616,-0.0838 l -3.91958,0.11071 1.92775,-0.99644 c 1.06027,-0.54804 2.87241,-1.46564 4.02701,-2.03907 1.18948,-0.59076 1.9559,-1.11381 1.76842,-1.20687 -0.18198,-0.0903 -1.19328,-0.37591 -2.24738,-0.63458 -1.05408,-0.25869 -2.01055,-0.5475 -2.1255,-0.6418 -0.115,-0.0944 0.46611,-0.3749 1.29119,-0.62354 2.5855,-0.77911 2.18051,-1.01039 -1.5983,-0.91276 -1.89967,0.0491 -3.45393,0.0112 -3.45392,-0.0844 4e-5,-0.0956 1.22621,-1.09666 2.72487,-2.22473 1.49869,-1.12809 2.73073,-2.13937 2.7379,-2.24734 0.006,-0.10798 -0.26414,-0.20536 -0.60294,-0.21642 -0.33882,-0.0112 -1.10406,-0.1608 -1.70057,-0.33268 l -1.08452,-0.3126 1.58993,-1.07822 1.58988,-1.07821 -1.60054,-0.15966 c -0.8803,-0.0877 -3.2022,-0.28898 -5.1598,-0.44715 -1.9576,-0.15818 -3.59419,-0.3191 -3.63687,-0.35763 -0.0427,-0.0386 1.18938,-0.98344 2.7379,-2.09983 l 2.81549,-2.02977 -1.50584,0.16293 c -0.82822,0.0896 -1.99866,0.22885 -2.601,0.30938 -0.94313,0.12613 -0.78111,0.008 1.16696,-0.84974 1.24415,-0.54789 2.12766,-1.03902 1.96332,-1.0914 -0.16428,-0.0523 -1.95546,0.11108 -3.98021,0.36314 -2.02477,0.2521 -3.74119,0.40119 -3.81429,0.33131 -0.0731,-0.0699 1.52936,-1.09532 3.56102,-2.2788 2.03163,-1.18345 3.75796,-2.25085 3.83629,-2.372 0.0784,-0.12105 -1.05901,-0.29942 -2.52741,-0.39621 -1.46839,-0.0968 -3.22422,-0.25966 -3.90184,-0.36198 l -1.23206,-0.18603 2.53724,-1.01027 c 1.39549,-0.55564 2.48895,-1.05645 2.42988,-1.1129 -0.0591,-0.0564 -1.01601,-0.34047 -2.12657,-0.63116 -3.01869,-0.79012 -2.84898,-0.69445 -2.28629,-1.28885 0.59652,-0.63011 0.6015,-0.6251 -1.10184,-1.10382 -1.51452,-0.42565 -1.40527,-0.52592 1.09516,-1.00522 1.86637,-0.35776 1.87994,-0.34986 -2.19032,-1.27615 l -3.01169,-0.68538 1.84564,-0.99234 c 1.0151,-0.54578 1.9078,-1.08846 1.98375,-1.20595 0.076,-0.11745 -0.3103,-1.347305 -0.85834,-2.732935 -0.54804,-1.385612 -0.93932,-2.573896 -0.86953,-2.640621 0.28345,-0.270975 4.3714,1.029068 7.00487,2.227656 3.52864,1.606026 5.96861,3.16574 8.65728,5.5341 6.03013,5.3117 10.72308,13.51833 14.03105,24.53637 0.67101,2.23493 1.2729,4.11407 1.33754,4.17586 0.14493,0.13855 2.59732,-0.50217 2.59732,-0.67861 0,-0.07 -0.43604,-0.69506 -0.96898,-1.3891 l -0.96897,-1.26187 1.65345,-0.44351 c 0.90939,-0.24393 1.65345,-0.49348 1.65345,-0.55458 0,-0.061 -0.61223,-0.83439 -1.36051,-1.71845 -0.74829,-0.88407 -1.32859,-1.63793 -1.28954,-1.67526 0.039,-0.0373 0.80529,0.1505 1.70275,0.41751 0.89747,0.26695 1.67662,0.44472 1.73145,0.39504 0.0901,-0.0818 -0.45021,-1.00955 -1.57321,-2.7008 l -0.41166,-0.61997 1.14795,0.55985 c 0.63136,0.30791 1.14793,0.49387 1.14793,0.41323 0,-0.0807 -0.24893,-0.61303 -0.55314,-1.18312 -0.56979,-1.06769 -0.40711,-1.26605 0.61108,-0.74512 0.54703,0.27986 0.56226,0.24624 0.38536,-0.85063 -0.10124,-0.62811 -0.25055,-1.55423 -0.33166,-2.05807 l -0.14751,-0.91606 0.61932,0.98149 c 0.34061,0.53983 0.71125,0.9815 0.82362,0.9815 0.11248,0 0.42585,-0.94224 0.69661,-2.09386 0.27078,-1.15162 0.5687,-2.09386 0.66204,-2.09386 0.28841,0 0.56974,8.16516 0.38466,11.16375 -0.36534,5.91884 -1.45172,11.74972 -2.83982,15.24203 -0.29248,0.73583 -0.46732,1.33789 -0.38856,1.33789 0.0788,0 0.84487,-0.40745 1.70241,-0.90545 7.51424,-4.36364 17.42462,-7.33083 27.94486,-8.36675 4.23651,-0.41714 13.37001,-0.83744 13.14191,-0.60472 -0.0754,0.0767 -1.80017,0.45801 -3.83306,0.84714 -2.03289,0.38912 -3.75008,0.75689 -3.81597,0.81726 -0.0659,0.0604 0.42177,0.63732 1.08371,1.28208 0.66195,0.64479 1.07626,1.17232 0.9207,1.17232 -0.15555,0 -1.18844,-0.29445 -2.29528,-0.65433 -1.10685,-0.35988 -2.14024,-0.65434 -2.29644,-0.65434 -0.15622,0 0.32741,0.60168 1.07466,1.33709 1.12195,1.1041 1.2394,1.30173 0.6742,1.13426 -0.37647,-0.11158 -1.60852,-0.47187 -2.7379,-0.80072 l -2.05343,-0.59795 1.91654,1.69763 1.91652,1.69762 -2.71926,-0.93125 c -1.49561,-0.51217 -2.82128,-0.89871 -2.94596,-0.859 -0.12472,0.0398 0.0824,0.50727 0.46052,1.03899 0.37795,0.53171 0.68717,1.03358 0.68717,1.11526 0,0.0816 -0.7514,-0.21407 -1.66976,-0.65726 -1.93221,-0.93241 -1.91208,-0.87683 0.79251,2.18634 1.11892,1.26728 1.98887,2.34769 1.93321,2.40089 -0.0557,0.0532 -1.27086,-0.57778 -2.70045,-1.40219 -1.42958,-0.82443 -3.33327,-1.89803 -4.23041,-2.38576 l -1.63114,-0.88684 0.78664,1.29353 c 0.43263,0.71146 0.96522,1.55855 1.18348,1.88245 0.21828,0.32389 0.35191,0.58664 0.29695,0.58388 -0.0549,-0.004 -1.63224,-0.47148 -3.50503,-1.04162 -1.87281,-0.57014 -3.43798,-1.0052 -3.47816,-0.96679 -0.0403,0.0384 0.42011,0.81546 1.02285,1.72677 0.60276,0.9113 1.04601,1.70462 0.985,1.76295 -0.0611,0.0584 -1.82051,-0.24229 -3.91004,-0.66801 -2.08951,-0.4257 -3.83679,-0.73799 -3.88287,-0.69395 -0.0461,0.044 0.54166,0.46369 1.30603,0.9326 0.76437,0.4689 1.3348,0.90507 1.26762,0.9693 -0.0673,0.0642 -1.30391,-0.23302 -2.7483,-0.66057 -1.44439,-0.42754 -2.62616,-0.71713 -2.62616,-0.64355 0,0.12388 1.10024,1.62592 2.68966,3.67191 0.36344,0.46785 0.59265,0.85064 0.50935,0.85064 -0.0833,0 -1.05276,-0.68299 -2.15437,-1.51774 -3.09907,-2.34839 -2.93868,-2.45434 -2.22851,1.47213 l 0.15743,0.87046 -1.94406,-0.9359 c -1.06922,-0.51474 -2.01123,-0.93588 -2.09334,-0.93588 -0.0822,0 0.10212,0.47111 0.40941,1.04693 0.63198,1.18422 0.5145,1.26504 -0.75954,0.52248 -1.19898,-0.69883 -1.38598,-0.65837 -0.60941,0.13185 0.79575,0.80974 0.6483,0.81007 -2.49593,0.005 -1.39448,-0.35676 -2.58342,-0.60279 -2.64204,-0.54675 -0.0587,0.0562 0.33419,0.56834 0.87294,1.13841 0.53875,0.57007 0.97955,1.09937 0.97955,1.17623 0,0.0769 -0.69087,-0.0327 -1.53525,-0.24352 -0.84439,-0.21081 -1.59362,-0.32748 -1.66492,-0.25932 -0.0713,0.0682 0.009,0.37066 0.17726,0.6722 0.24424,0.43627 0.45846,0.51039 1.04889,0.36287 1.28272,-0.32046 12.37014,-0.21679 15.11594,0.14134 20.88981,2.72454 36.64023,14.2274 47.18093,34.4572 2.11097,4.05137 3.98796,8.4461 3.1859,7.45939 -0.29253,-0.35989 -1.90135,-2.42104 -3.57517,-4.58033 l -3.04328,-3.92599 0.15812,3.92599 c 0.17157,4.25972 0.1131,4.28723 -1.11263,0.52346 l -0.76713,-2.35558 -0.0795,2.48402 c -0.0438,1.36621 -0.17116,2.57156 -0.28306,2.67853 -0.11197,0.10699 -0.49766,-1.42307 -0.85723,-3.4001 -0.35958,-1.97703 -0.73162,-3.88098 -0.8268,-4.23104 -0.15094,-0.55512 -0.46857,-0.18718 -2.48555,2.87906 l -2.31253,3.51551 -0.0809,-1.7667 c -0.0444,-0.97168 -0.17705,-1.76669 -0.29451,-1.76669 -0.1174,0 -0.49936,0.29082 -0.84866,0.64626 -0.3493,0.35544 -0.74039,0.58405 -0.8691,0.50802 -0.12868,-0.0761 -0.24478,-1.39743 -0.25797,-2.93643 -0.0138,-1.539 -0.10553,-3.36982 -0.20535,-4.06847 l -0.18134,-1.27031 -1.62887,4.67283 -1.62884,4.67283 -0.29985,-1.83213 -0.29984,-1.83213 -0.3077,1.30866 c -0.16924,0.71977 -0.39478,1.87697 -0.50115,2.57157 -0.10642,0.6946 -0.28527,1.16571 -0.39753,1.04693 -0.11222,-0.11879 -0.91114,-3.04268 -1.77532,-6.49756 -0.86417,-3.45487 -1.65039,-6.36423 -1.74715,-6.46522 -0.0967,-0.1009 -0.91495,1.84236 -1.81821,4.31859 -1.12767,3.09141 -1.66895,4.28175 -1.72729,3.79862 -0.0467,-0.38696 0.1073,-3.24482 0.34224,-6.3508 0.23498,-3.10597 0.41809,-6.14608 0.40693,-6.75579 l -0.0203,-1.10858 -0.79883,1.70128 c -0.43935,0.93569 -1.10204,2.29015 -1.47263,3.00992 l -0.6738,1.30866 0.16444,-2.29015 c 0.0904,-1.2596 0.10212,-2.29017 0.0261,-2.29017 -0.076,0 -1.28338,1.6506 -2.68309,3.66801 -1.39972,2.0174 -2.59528,3.61986 -2.65686,3.561 -0.0616,-0.0589 0.70749,-3.42631 1.70901,-7.48327 1.00154,-4.05696 1.76925,-7.42568 1.7061,-7.48608 -0.0631,-0.0604 -1.0796,1.83394 -2.2587,4.20961 -1.17912,2.37567 -2.18372,4.28128 -2.23246,4.2347 -0.0487,-0.0466 0.28424,-2.71205 0.73992,-5.92324 0.4557,-3.21117 0.7848,-5.88034 0.73131,-5.93146 -0.0534,-0.0511 -1.49512,2.67337 -3.20369,6.05442 -1.70857,3.38103 -3.15294,6.10295 -3.20969,6.04867 -0.0568,-0.0543 0.15656,-3.01072 0.4741,-6.56993 0.31752,-3.55919 0.53132,-6.51524 0.47511,-6.56898 -0.0563,-0.0537 -1.52927,2.3159 -3.27345,5.26587 -2.12568,3.59519 -3.22692,5.2249 -3.3401,4.94293 -0.0929,-0.23138 -0.1689,-1.86365 -0.1689,-3.62729 0,-1.76366 -0.0663,-3.26995 -0.14716,-3.34733 -0.14922,-0.14265 -5.05483,4.58655 -5.05483,4.87303 0,0.0856 0.80965,1.06791 1.79922,2.18291 2.37526,2.67638 6.27737,8.28976 7.99154,11.49626 3.65189,6.83115 5.89176,14.1093 7.05017,22.90879 0.52465,3.98511 0.84861,14.14617 0.4312,13.52457 -0.15676,-0.23342 -0.97676,-1.94067 -1.82224,-3.79389 -0.8455,-1.85322 -1.58979,-3.4507 -1.65394,-3.54992 -0.0641,-0.0993 -1.04522,0.22408 -2.18013,0.71852 -1.13494,0.49441 -2.12448,0.89895 -2.19898,0.89895 -0.0746,0 0.48137,-1.14365 1.2353,-2.54148 0.75396,-1.3978 1.33813,-2.57269 1.29822,-2.61085 -0.0399,-0.0381 -1.17422,0.80508 -2.52066,1.87387 -1.34642,1.06878 -2.47772,1.86089 -2.51399,1.76023 -0.0362,-0.10065 0.34459,-2.21012 0.84633,-4.68769 0.50175,-2.47756 0.82399,-4.4525 0.7161,-4.38874 -0.10792,0.0637 -0.70621,0.93664 -1.32962,1.93976 -0.62338,1.00312 -1.23341,1.88292 -1.35559,1.95509 -0.12219,0.0722 0.0492,-1.48253 0.38112,-3.45495 0.3318,-1.97242 0.573,-3.61985 0.53602,-3.66094 -0.037,-0.041 -1.53109,1.0954 -3.32022,2.52553 -1.78912,1.43012 -3.29694,2.56022 -3.35073,2.51132 -0.0538,-0.049 0.83159,-1.92149 1.96747,-4.16133 1.13588,-2.23985 1.97496,-4.07245 1.86459,-4.07245 -0.11032,0 -1.66422,0.47003 -3.45301,1.04452 -1.78879,0.5745 -3.27982,1.01617 -3.31338,0.9815 -0.0336,-0.0347 0.30787,-0.94638 0.75873,-2.02602 0.45085,-1.07965 1.11623,-2.71373 1.47862,-3.63129 0.70353,-1.78134 0.67698,-1.79404 -0.9309,-0.4448 l -0.63049,0.52905 0.1942,-2.45922 0.1942,-2.45921 -2.94404,1.5029 c -1.61923,0.82662 -3.00679,1.44294 -3.08351,1.36961 -0.11348,-0.10847 0.73474,-3.86196 1.72551,-7.63567 l 0.19224,-0.73217 -1.30791,0.69881 c -0.71934,0.38435 -1.40449,0.69882 -1.52257,0.69882 -0.11803,0 0.20956,-1.13465 0.72804,-2.52143 0.51849,-1.38677 0.90021,-2.56201 0.84827,-2.61167 -0.0519,-0.0497 -1.37697,0.43072 -2.94454,1.0675 -1.56755,0.63678 -2.88583,1.12362 -2.9295,1.08187 -0.0437,-0.0418 0.72859,-1.81613 1.71613,-3.94306 0.98755,-2.12696 1.74564,-3.91487 1.68467,-3.97316 -0.061,-0.0583 -0.70017,0.13545 -1.42042,0.43064 -0.72026,0.29513 -1.3502,0.49777 -1.39984,0.45031 -0.0496,-0.0475 0.037,-1.17624 0.19258,-2.50837 0.41366,-3.54191 0.37421,-3.63048 -1.11371,-2.50094 -0.67421,0.5118 -1.26568,0.8162 -1.31442,0.67644 -0.0487,-0.13969 0.10023,-1.28845 0.33108,-2.55267 0.23084,-1.26422 0.3674,-2.34858 0.30346,-2.40969 -0.064,-0.0611 -0.49292,0.14526 -0.95335,0.45873 -0.9508,0.64722 -0.96051,0.6186 -0.56771,-1.67442 0.14647,-0.85485 0.22286,-1.59576 0.16974,-1.64646 -0.053,-0.0507 -0.55231,0.16494 -1.10951,0.47924 -0.98563,0.55591 -1.00877,0.6041 -0.85325,1.77733 0.088,0.66323 0.28066,3.20817 0.42836,5.65537 1.09842,18.20175 -1.58607,31.48807 -7.69448,38.08212 l -1.09104,1.1778 0.0819,-2.14554 c 0.0908,-2.37387 0.0519,-2.42335 -1.90577,-2.43123 -0.4894,-0.001 -0.88982,-0.0885 -0.88982,-0.19227 0,-0.10388 0.70825,-0.87291 1.57387,-1.70913 l 1.57387,-1.52044 -2.05299,0.16228 -2.05301,0.16227 1.09516,-0.93463 1.09516,-0.93463 -0.68112,-0.51106 -0.68112,-0.51102 1.3656,-0.54492 c 0.75108,-0.2997 1.612,-0.64496 1.91318,-0.76725 0.43609,-0.17709 0.21315,-0.2873 -1.09516,-0.54139 -4.00728,-0.77824 -5.37659,-1.12765 -5.1603,-1.31674 0.12766,-0.11158 1.43292,-0.71789 2.90062,-1.34731 1.4677,-0.62942 2.66896,-1.25722 2.66945,-1.3951 4.9e-4,-0.1379 -0.45311,-0.69516 -1.00802,-1.23843 -0.5549,-0.54324 -0.95532,-1.02782 -0.88982,-1.07681 0.0655,-0.0491 0.73515,-0.4289 1.48807,-0.84421 l 1.36894,-0.7551 -1.58592,-0.27297 -1.58594,-0.27297 2.74078,-1.57039 c 1.50742,-0.86373 2.74472,-1.65874 2.74954,-1.76669 0.005,-0.10798 -0.69968,-0.20805 -1.56554,-0.2224 -0.86586,-0.0147 -1.85993,-0.10289 -2.20905,-0.19689 -0.56586,-0.1523 -0.43959,-0.27992 1.1636,-1.17645 0.9891,-0.55311 1.79837,-1.11232 1.79837,-1.24264 0,-0.13039 -0.40042,-0.24057 -0.88982,-0.24495 -1.22088,-0.0112 -0.51323,-0.37157 1.50586,-0.76744 0.86586,-0.16975 1.57428,-0.39474 1.57428,-0.49998 0,-0.10524 -0.79979,-0.59745 -1.77731,-1.09381 -0.97754,-0.49636 -1.77838,-0.98771 -1.77964,-1.0919 -0.001,-0.10425 0.98616,-1.50945 2.19428,-3.12279 1.20813,-1.61334 2.15346,-3.05924 2.10076,-3.21311 -0.0528,-0.15393 -0.42516,-0.317 -0.82765,-0.36254 -0.99642,-0.11271 -0.91943,-0.41797 0.28492,-1.12953 1.00122,-0.59153 1.00643,-0.6032 0.34224,-0.76427 -0.81124,-0.19676 -0.79228,-0.33561 0.28403,-2.08068 0.85456,-1.38551 0.8842,-2.02379 0.12207,-2.62845 -0.32649,-0.259 -0.66979,-0.18876 -1.788,0.36583 -5.20244,2.58027 -10.99357,9.64558 -16.65751,20.32263 -11.47755,21.63621 -19.82511,51.45943 -21.94114,78.38897 -0.33069,4.20859 -0.42414,17.65056 -0.13158,18.92404 0.1706,0.74225 0.29014,0.79501 3.3798,1.49051 14.3869,3.23852 27.67097,10.10592 34.87436,18.02877 1.90609,2.09646 3.78444,4.54607 3.78444,4.93537 0,0.10997 -28.27565,0.19981 -62.83478,0.19981 -38.96012,0 -62.83477,-0.0934 -62.83477,-0.24562 z M 251.59717,165.3897 c 0.59992,-2.06952 0.59506,-2.0719 -1.27814,-0.6218 l -1.17572,0.91016 0.8832,0.87112 c 0.48578,0.47913 0.91398,0.84173 0.95156,0.8058 0.0376,-0.036 0.3162,-0.92031 0.6191,-1.96528 z m -4.49942,-2.83449 c 0.22497,-0.85689 0.14614,-0.93365 -0.49754,-0.48376 -0.29753,0.20798 -0.44473,0.52883 -0.35041,0.7638 0.24754,0.61667 0.64718,0.48468 0.84795,-0.28004 z m 2.31738,-1.01387 c -0.33191,-0.31858 -0.78764,0.28802 -0.78489,1.04476 0.001,0.47847 0.0472,0.46722 0.52859,-0.13087 0.34705,-0.43116 0.43448,-0.74286 0.2563,-0.91389 z m -9.80676,-19.5213 c -0.51639,-0.41101 -0.71013,-0.45205 -0.88563,-0.1876 -0.38957,0.58703 -0.25836,0.73134 0.65681,0.72238 l 0.88981,-0.009 z m 1.34546,-1.93626 c 0,-0.12251 -1.50397,-0.92277 -1.73411,-0.92277 -0.0651,0 -0.18299,0.23557 -0.26175,0.52347 -0.12509,0.45749 -0.009,0.52346 0.92634,0.52346 0.58824,0 1.06952,-0.0559 1.06952,-0.12413 z m -0.34911,-5.27375 0.60915,-0.15605 -0.60835,-0.47093 c -0.61453,-0.47569 -1.00671,-0.29701 -1.01644,0.46311 -0.005,0.36603 0.13741,0.38896 1.01564,0.16391 z M 89.818586,95.96807 c 0.005,-0.234611 -3.807055,-3.766466 -3.93239,-3.642846 -0.105908,0.104525 0.44229,3.649684 0.798844,5.165231 0.139296,0.592416 0.158117,0.587918 1.635645,-0.392599 0.82207,-0.545549 1.496121,-1.053949 1.497901,-1.129786 z m 4.524871,-3.496865 c 0.505002,-0.353012 0.500748,-0.389377 -0.15298,-1.30688 -0.684478,-0.960642 -1.277123,-1.284651 -0.97553,-0.533347 0.09139,0.227708 0.166158,0.816607 0.166158,1.308665 0,0.980483 0.178833,1.079271 0.962364,0.531562 z m -3.300122,-1.575909 c -0.186027,-1.185878 -0.456718,-1.408286 -1.180378,-0.9699 -0.29436,0.178338 -0.216576,0.444863 0.382304,1.309989 0.41351,0.597339 0.804676,1.035594 0.869218,0.973892 0.0645,-0.06167 0.03257,-0.653008 -0.07119,-1.313981 z M 109.5347,63.389362 c 0,-0.768886 -0.218,-0.800125 -1.58308,-0.226868 -1.00319,0.421274 -1.00801,0.430374 -0.33344,0.628244 1.39759,0.409962 1.91652,0.301285 1.91652,-0.401376 z m -0.37208,-4.238061 c -0.0754,-0.07197 -0.79241,0.105644 -1.59361,0.394707 -1.50945,0.544619 -1.47665,0.617484 0.45985,1.021484 1.06952,0.223132 1.09721,0.210769 1.18291,-0.528417 0.0482,-0.416293 0.0261,-0.81579 -0.0491,-0.887774 z m 0.0982,-7.283501 v -0.921384 l -1.12774,0.54999 c -1.12114,0.546777 -1.15119,0.865428 -0.10439,1.106145 1.12672,0.259078 1.23206,0.196261 1.23206,-0.734751 z"
       style="stroke-width:1.67309" />
  </g>
</svg>
