<?xml version="1.0" encoding="UTF-8" standalone="no"?>
<!-- Created with Inkscape (http://www.inkscape.org/) -->

<svg
   version="1.1"
   id="svg1"
   width="2666.6667"
   height="2666.6667"
   viewBox="0 0 2666.6667 2666.6667"
   sodipodi:docname="add_icon.eps"
   xmlns:inkscape="http://www.inkscape.org/namespaces/inkscape"
   xmlns:sodipodi="http://sodipodi.sourceforge.net/DTD/sodipodi-0.dtd"
   xmlns="http://www.w3.org/2000/svg"
   xmlns:svg="http://www.w3.org/2000/svg">
  <defs
     id="defs1" />
  <sodipodi:namedview
     id="namedview1"
     pagecolor="#ffffff"
     bordercolor="#000000"
     borderopacity="0.25"
     inkscape:showpageshadow="2"
     inkscape:pageopacity="0.0"
     inkscape:pagecheckerboard="0"
     inkscape:deskcolor="#d1d1d1">
    <inkscape:page
       x="0"
       y="0"
       inkscape:label="1"
       id="page1"
       width="2666.6667"
       height="2666.6667"
       margin="0"
       bleed="0" />
  </sodipodi:namedview>
  <g
     id="g1"
     inkscape:groupmode="layer"
     inkscape:label="1">
    <g
       id="group-R5">
      <path
         id="path2"
         d="M 20000,0 H 0 V 20000 H 20000 V 0"
         style="fill:#ffffff;fill-opacity:1;fill-rule:nonzero;stroke:none"
         transform="matrix(0.13333333,0,0,-0.13333333,0,2666.6667)" />
      <path
         id="path3"
         d="m 10000,5697.4 c -2372.5,0 -4302.64,1930.1 -4302.64,4302.6 0,2372.5 1930.14,4302.6 4302.64,4302.6 2372.5,0 4302.6,-1930.1 4302.6,-4302.6 0,-2372.5 -1930.1,-4302.6 -4302.6,-4302.6 z m 0,8924 c -2548.11,0 -4621.35,-2073.3 -4621.35,-4621.4 0,-2548.1 2073.24,-4621.4 4621.35,-4621.4 2548.1,0 4621.4,2073.3 4621.4,4621.4 0,2548.1 -2073.3,4621.4 -4621.4,4621.4 v 0"
         style="fill:#000000;fill-opacity:1;fill-rule:evenodd;stroke:none"
         transform="matrix(0.13333333,0,0,-0.13333333,0,2666.6667)" />
      <path
         id="path4"
         d="M 12231,10159.4 H 10159.4 V 12231 c 0,88.1 -71.3,159.4 -159.4,159.4 -88.12,0 -159.36,-71.3 -159.36,-159.4 V 10159.4 H 7769.01 c -88.13,0 -159.37,-71.3 -159.37,-159.4 0,-88.1 71.23,-159.4 159.37,-159.4 H 9840.64 V 7769 c 0,-88.1 71.24,-159.4 159.36,-159.4 88.1,0 159.4,71.3 159.4,159.4 V 9840.6 H 12231 c 88.1,0 159.4,71.3 159.4,159.4 0,88.1 -71.3,159.4 -159.4,159.4"
         style="fill:#000000;fill-opacity:1;fill-rule:evenodd;stroke:none"
         transform="matrix(0.13333333,0,0,-0.13333333,0,2666.6667)" />
    </g>
  </g>
</svg>
